<?xml version="1.0" standalone="no"?>
<!DOCTYPE svg PUBLIC "-//W3C//DTD SVG 20010904//EN"
 "http://www.w3.org/TR/2001/REC-SVG-20010904/DTD/svg10.dtd">
<svg version="1.0" xmlns="http://www.w3.org/2000/svg"
 width="400.000000pt" height="400.000000pt" viewBox="0 0 400.000000 400.000000"
 preserveAspectRatio="xMidYMid meet">

<g transform="translate(0.000000,400.000000) scale(0.100000,-0.100000)"
fill="#000000" stroke="none">
<path d="M1505 3876 c-93 -43 -147 -127 -148 -231 -2 -128 91 -238 221 -260
l42 -7 0 -49 0 -49 -255 0 c-274 0 -296 -3 -315 -51 -14 -33 -6 -62 23 -89 20
-19 36 -20 308 -20 l287 0 30 25 c17 14 42 49 56 77 22 43 26 66 26 133 0 71
3 85 21 101 12 10 31 39 44 64 l22 44 18 -34 c10 -19 28 -48 40 -65 18 -24 24
-47 27 -115 5 -95 20 -134 76 -192 l36 -38 288 0 289 0 24 25 c34 33 33 78 -1
110 l-27 25 -258 0 -259 0 0 34 c0 19 -3 41 -6 49 -4 11 7 16 43 22 66 10 114
36 160 89 111 126 74 320 -76 398 -66 34 -162 38 -226 9 -47 -21 -111 -88
-132 -139 l-14 -35 -23 49 c-25 54 -81 109 -132 130 -53 22 -151 18 -209 -10z
m164 -120 c15 -8 33 -22 41 -30 11 -14 9 -16 -11 -14 -22 3 -24 0 -21 -39 4
-48 -18 -94 -55 -114 -29 -16 -29 -26 0 -32 18 -4 18 -4 -6 -6 -64 -3 -127 61
-127 127 0 89 99 149 179 108z m500 0 c33 -18 66 -54 39 -44 -20 8 -28 -10
-28 -61 0 -43 -20 -75 -64 -102 -24 -14 -26 -19 -12 -19 11 0 17 -3 13 -6 -12
-12 -77 18 -96 45 -46 64 -33 142 32 181 38 24 78 25 116 6z"/>
<path d="M880 3094 c-93 -29 -181 -117 -224 -222 -16 -39 -20 -84 -25 -257 -7
-244 10 -197 -174 -474 -137 -203 -186 -289 -236 -412 -126 -311 -130 -612
-11 -866 124 -266 355 -461 657 -556 150 -48 160 -48 1033 -45 l825 3 109 33
c192 58 337 139 468 261 244 228 349 546 292 882 -38 221 -119 399 -322 706
-77 116 -147 222 -154 235 -9 16 -15 87 -18 238 -6 212 -6 216 -35 275 -59
122 -175 205 -300 213 -61 4 -74 1 -97 -18 -22 -17 -28 -30 -28 -59 0 -49 21
-67 87 -76 61 -8 131 -49 155 -91 l16 -29 -85 3 c-52 2 -90 -1 -96 -7 -8 -8
-8 -11 0 -11 27 0 65 -70 72 -130 l7 -60 -168 -2 c-92 -1 -178 -2 -190 -2 -20
-1 -24 5 -29 50 -17 139 -141 257 -270 257 -31 0 -71 -5 -87 -12 -27 -11 -38
-10 -87 8 -71 27 -149 27 -219 1 -52 -20 -57 -20 -106 -4 -143 47 -309 -68
-344 -236 l-11 -59 -238 -5 -237 -5 0 77 c0 97 13 143 52 188 40 46 70 60 141
69 64 8 90 32 90 82 0 45 -44 73 -111 72 -31 0 -77 -7 -102 -15z m1013 -307
c18 -8 39 -22 47 -32 14 -16 13 -17 -8 -11 -21 7 -22 5 -22 -47 0 -57 -8 -70
-74 -125 -26 -22 -29 -22 -52 -7 -44 28 -60 71 -56 142 2 27 54 80 85 86 40 8
47 7 80 -6z m-308 -24 c-4 -10 -9 -49 -12 -88 -4 -63 -2 -75 25 -128 16 -33
25 -54 20 -49 -14 14 -40 3 -31 -12 4 -6 0 -6 -9 2 -14 11 -19 9 -37 -14 -21
-27 -21 -27 -43 -8 -58 52 -76 170 -35 237 27 44 72 77 106 77 18 0 22 -4 16
-17z m566 -45 c46 -104 21 -206 -62 -248 -61 -31 -74 -24 -30 16 54 48 75 107
68 187 -3 34 -9 70 -12 80 -4 9 -3 17 3 17 5 0 20 -24 33 -52z m-801 -319 c18
-27 52 -66 76 -86 24 -19 44 -43 44 -53 0 -14 -92 -516 -116 -626 -13 -63 38
-105 103 -83 18 6 40 21 47 32 8 12 24 76 36 142 26 144 64 355 80 448 11 63
14 67 39 67 43 0 126 45 162 88 l33 40 39 -44 c43 -49 93 -79 150 -89 l37 -7
0 -229 0 -229 -30 0 -30 0 0 -74 0 -75 -52 -3 -53 -3 -12 -80 c-13 -78 -148
-817 -158 -862 l-5 -23 418 0 419 0 -13 73 c-13 72 -49 261 -127 672 l-43 220
-47 3 -47 3 0 75 0 74 -30 0 -30 0 0 251 0 250 53 49 c29 27 61 64 72 83 18
34 20 35 94 41 42 3 162 5 267 4 l192 -1 5 -58 c7 -79 38 -142 147 -294 250
-351 330 -531 347 -790 21 -328 -186 -637 -525 -780 -170 -72 -147 -70 -1027
-70 -786 0 -790 0 -878 22 -327 84 -556 291 -646 587 -59 193 -27 432 90 672
44 89 162 274 253 394 75 100 115 183 122 259 l7 61 253 0 252 -1 32 -50z
m809 -925 c5 -4 24 -644 20 -648 -2 -2 -60 -6 -128 -8 l-123 -5 5 41 c5 40 93
570 102 612 4 20 10 21 62 17 32 -3 60 -7 62 -9z"/>
<path d="M1146 2382 c-3 -5 -28 -70 -55 -143 -27 -74 -90 -242 -140 -374 -50
-131 -91 -245 -91 -251 0 -7 11 -25 24 -40 31 -36 87 -37 122 -2 28 29 306
791 292 803 -10 9 -147 15 -152 7z"/>
<path d="M2400 2371 c0 -11 41 -147 91 -303 51 -156 105 -325 121 -376 37
-115 59 -144 112 -144 44 0 86 33 86 68 0 13 -57 192 -126 399 l-126 375 -79
0 c-71 0 -79 -2 -79 -19z"/>
<path d="M1240 3088 c-27 -29 -27 -91 0 -118 28 -28 91 -27 124 3 65 56 30
137 -58 137 -34 0 -50 -6 -66 -22z"/>
<path d="M2368 3103 c-23 -6 -41 -56 -33 -92 8 -40 39 -61 88 -61 74 0 112 76
66 134 -17 21 -28 26 -62 25 -23 -1 -49 -3 -59 -6z"/>
</g>
</svg>
